<svg width="472" height="562" viewBox="0 0 472 562" fill="none" xmlns="http://www.w3.org/2000/svg">
<path d="M471.5 1.90997C466.67 7.90997 428.5 49.68 319.12 31.51C201.43 11.97 135.6 -4.63001 71.0098 40.93C26.0698 72.63 8.01014 116.21 1.14014 140.44C0.700143 140.96 0.460163 141.29 0.410163 141.36V421.25C0.156098 423.015 0.0287333 424.797 0.0297917 426.58V528.58C0.0290779 530.367 0.156439 532.151 0.410163 533.92V538.35H1.31983C5.03983 552.03 16.3202 561.98 29.7002 561.98H442.36C455.73 561.98 467.02 552.03 470.74 538.35H472.03V0L471.5 1.90997ZM278.92 63.91C272.204 65.3552 265.349 66.0494 258.48 65.98C251.65 65.98 244.82 65.71 238.02 65.26C231.22 64.81 224.44 64.26 217.67 63.7C210.9 63.14 204.12 62.61 197.36 62.22C170.36 60.52 143.23 60.9 116.81 66.33C110.2 67.62 103.68 69.33 97.21 71.33C93.99 72.33 90.7598 73.33 87.5899 74.58C85.9999 75.17 84.3901 75.71 82.8301 76.34L78.1201 78.27C76.5401 78.89 75 79.63 73.46 80.33C71.92 81.03 70.3501 81.72 68.8501 82.51L64.2998 84.86C62.7798 85.62 61.2999 86.53 59.8399 87.36C53.8718 90.7788 48.1575 94.6221 42.7402 98.86C37.2605 103.174 32.1184 107.901 27.3599 113C22.9499 117.75 25.98 114.48 17.96 122.64C9.95997 130.37 3.96014 137.32 1.89014 139.64C4.07645 134.861 6.57517 130.231 9.37012 125.78C17.2983 113.187 27.3032 102.029 38.96 92.78C44.5824 88.2905 50.5361 84.2323 56.77 80.64C58.33 79.78 59.8402 78.81 61.4302 78.02L66.1499 75.59C67.7199 74.78 69.34 74.09 70.9399 73.33C72.5399 72.57 74.13 71.84 75.77 71.2C88.6184 65.8188 101.995 61.7969 115.68 59.2C119.07 58.48 122.48 58 125.89 57.43C127.6 57.18 129.31 57 131.02 56.78C132.73 56.56 134.43 56.36 136.15 56.21C142.99 55.48 149.86 55.21 156.71 54.99C170.4 54.8093 184.088 55.4069 197.71 56.78C204.52 57.43 211.29 58.22 218.06 59.04L238.31 61.55C245.06 62.35 251.8 63.11 258.55 63.46C261.92 63.62 265.3 63.73 268.67 63.62C272.044 63.5717 275.412 63.2977 278.75 62.8C278.82 62.7916 278.89 62.7979 278.958 62.8186C279.025 62.8393 279.086 62.8739 279.139 62.9201C279.192 62.9663 279.235 63.0231 279.264 63.0869C279.294 63.1506 279.309 63.2198 279.31 63.29C279.317 63.4201 279.279 63.5486 279.203 63.6542C279.126 63.7597 279.016 63.8359 278.89 63.87L278.92 63.91Z" fill="#F2A0A0"/>
</svg>
